<svg xmlns="http://www.w3.org/2000/svg" id="svg" width="1291px" height="1304px" style="display:block" viewBox="0 0 1291 1304" transform="rotate(0) scale(1, 1)"><path d="M0 0h194l10 4 6 5v2l3 1 4 11v67l41-20 39-19 33-16 19-9 15-7 17-9 11-5 10-2h195l11 4 4 3v2h2l5 9 2 10-1 9-7 12-29 43-20 30-29 43-14 21-14 21-29 43-26 39-11 16-10 15-12 19-17 26-6 10-3 12-1 9v11l2 14 4 12 10 17 6 7 7 11 10 15 10 15 10 15 8 12 10 15 18 27 11 16 16 21 9 13 10 15 11 16 3-7 6-21 3-14 6-20 2-13 5-9 4-5 10-6 24-11 16-8 25-12 33-16 33-16 25-12 39-19 29-14 11-4h170l23 1 9 3v2l4 1v2l3 1 2 9-5 17-2 10-7 23-2 10-2 7-3 10v4h-2v9l-4 14-5 20-8 30-4 16-4 16-4 16-4 12-3 15-3 10-3 11-2 10-7 24-2 10-7 23-1 7-8 27-1 7-6 21-4 17-6 21-4 17-4 11-3 12-10 31-4 13-9 27-15 37-8 19-4 9-12 26-11 20-12 17-11 13-11 12-9 9-11 9-15 11-9 5-13 8-26 12-16 8-33 16-20 9-15 8-16 7-16 8-19 9-14 7-24 11-16 8-19 9-17 5-5 1h-27l-17-6-14-6-13-10-11-9-16-16-7-8-8-9v-2l-3-1-20-30-25-37-13-19-21-31-19-28-25-37-15-22-8-12-23-34-17-25-21-31-11-16-9-15-11-16-13-19-19-28-4 1-26 13-19 10-29 15-27 14-9 4-14 3-32 1-172-1-11-3-8-5-6-9-2-8-1-338V134l4-10 4-5h2v-2l10-6 22-11 18-8 16-8 28-13 15-7 38-18 34-16 24-11 16-8 9-5 7-4Zm545 653" style="fill:#F0F0F0" transform="translate(260)"/><path d="m0 0 1 2-5 8-2 7 1 367 2 368 1 9h2l5 8 12 6 78 1h123l12-6 6-7 3-8 1-206 5 5 14 21 13 19 13 19 17 25 12 17 16 24 7 10 16 24 9 13 10 15v3h2l3 5 8 12v2h2l7 11 7 10 11 18 6 8 12 18v2h2l11 17 7 10 10 15 13 19 10 15 9 13 16 24 12 17 10 15 21 31 16 24 12 17 16 24 16 24 6 9 10 14 12 14 14 15 13 12 11 8 8 5 20 8 10 3h24l20-5 9-4 3 1-27 13-23 11-29 14-20 9-15 8-16 7-16 8-19 9-14 7-24 11-16 8-19 9-17 5-5 1h-27l-17-6-14-6-13-10-11-9-16-16-7-8-8-9v-2l-3-1-20-30-25-37-13-19-21-31-19-28-25-37-15-22-8-12-23-34-17-25-21-31-11-16-9-15-11-16-13-19-19-28-4 1-26 13-19 10-29 15-27 14-9 4-14 3-32 1-172-1-11-3-8-5-6-9-2-8-1-338V125l4-10 4-5h2v-2l10-6 22-11 18-8 16-8 28-13 15-7 38-18 34-16 24-11 16-8Z" style="fill:#B8B8B8" transform="translate(238 9)"/><path d="m0 0 1 2-5 8-2 7 1 367 2 368 1 9h2l3 6-3 1-1 3-10 4-6 1v2l-5 2h-3v2l-12 5-9 4-8 2-8 5-10 5-13 5-11 6-10 4-12 6-8 2v2l-12 5-13 5-14 7-10 4h-2v2l-20 8-7 4-6 1v2h-8l-2 4-6 3h-5l-3-10-1-338V125l4-10 4-5h2v-2l10-6 22-11 18-8 16-8 28-13 15-7 38-18 34-16 24-11 16-8Z" style="fill:#B0B0B0" transform="translate(238 9)"/><path d="M0 0h2v2h-3l-1 3-5 4-1 3h-2l-2 10-3 14-6 20-3 14-6 20-1 7-6 21-2 11-7 24-3 14-2 7-5 18-4 17-5 18-4 17-18 71-7 28h-2l-1 6-6 11-8 10-9 6-5 2h-12l-8-4-5-4-9-11-29-44-20-30-10-15-10-15-28-42-4-8 1-7 7-24 3-14 6-20 2-13 5-9 4-5 10-6 24-11 16-8 25-12 33-16 33-16 25-12 39-19Z" style="fill:#A0A0A0" transform="translate(1065 449)"/><path d="m0 0 4 1 10 6 3 1 78 1h123l6-1-4 3-16 7-26 13-19 10-20 10-13 7-1 2-16 8-39 20-19 10-33 17-11 4-10 2-32 1-172-1-11-3-8-5-4-5v-2l10-4 2-3h8v-2l9-4 8-4 13-5h3v-2l12-5 16-8 11-4 9-4h3v-2l16-7 10-5 10-4 14-7 10-4 11-6 3-2 7-2 12-5 5-2h3v-2l5-2h3V9l10-4 6-1Z" style="fill:#606060" transform="translate(238 776)"/><path d="m0 0 5 5 14 21 13 19 13 19 17 25 12 17 16 24 7 10 16 24 9 13 9 13-1 2-5 1-1 1-3 3-5 1-3 1v3l-7 2-4 3-1 1-2 3-1 5-4-1-1-2h-3l-2 9-8 4h-5v2l-4-1v3l-4 4-6 1-5 3-3 1-1 2 5-1-1 4-5 2-5 4-5 2h-5l-5 5-2 7-7 3-2 2-6 1-6 2 5 1-1 4-2 2H5l-4 3-5-1 1 6-1 4-9 2-2 7-4 3h-6l-4 4 3 1-1 3-6 4h-3l-3 7-10 3v1l-1 6-3-1-5 2 3 3-1 3-5 2-3-1-2 3-1 5-4-4-12-18-13-19-19-28 1-4 39-20 39-20 8-4 10-4 4-4 5-3 6-8 2-6Zm5 273" style="fill:#D0D0D0" transform="translate(478 558)"/><path d="m0 0 1 2 2 1-1 2 5-1h3l7 2 9-3 9 4 6-2h6l7 3 6-1 2-1 3-1v2l10 1 11 1 5-1 9 2 5 3 1-3v2l9 1v-2l2 1 3 2v-2l6 1 2 2 6-1 4 5 5-2 7 1 2 4 6-1h6l2 2 2 1v26h2l1 9h2l3 6-3 1-1 3-10 4-6 1v2l-5 2h-3v2l-12 5-9 4-8 2-8 5-10 5-13 5-11 6-10 4-12 6-8 2v2l-12 5-13 5-14 7-10 4h-2v2l-20 8-7 4-6 1v2h-8l-2 4-6 3h-5l-3-10V6l4-2 5 1 1 3h3V6h2v2l2-1 3-4v2h13l3-3 4 1v2l8-2 1 2h5l5-2Zm100 12" style="fill:#B8B8B8" transform="translate(65 711)"/><path d="m0 0 3 4 2 2 6 2 1-2 1 4 4 1 2-2 2 4 2-2 3 1v2l3-2 3 2 2 3 3 1 3-1 3 3v2l4-1v-2l2 1 4 4 2 3 5 2v2h6v2l5-3 5 4 1-2 4 3 3 4-1 4h2l1-2 3 1 5-1 2 4h-2l3 3v2h2l1-2 5 1 3 3h3l1 1 4 2 3 1v3h3v3l7 1-1 3 5-1 3 3-2 4h2l1-2 3 2 4 7 5-3 2 2 1 6 2 1 1-2v3h2l1-2 2 5 4 1 3 6 6-1 1 3v3l-1 8-21 84h-2l-1 6-6 11-8 10-9 6-5 2h-12l-8-4-5-4-9-11-29-44-20-30-10-15-10-15-28-42-4-8 1-7 7-24 3-14Zm42 17 1 2-2-1Zm53 29 2 1Zm42 23" style="fill:#a8a8a8" transform="translate(819 599)"/><path d="m0 0 3 1-6 5-11 15-4 7-17 25-21 31-25 37-19 28-19 28-21 31-16 24-9 13-2 2V81l41-20 39-19 33-16 19-9 15-7 17-9Z" style="fill:#B8B8B8" transform="translate(644 9)"/><path d="M0 0" style="fill:#ff0" transform="translate(1112 1127)"/></svg>